<svg width="150" height="152" viewBox="0 0 150 152" fill="none" xmlns="http://www.w3.org/2000/svg">
<path d="M75 76C85.3553 76 93.75 67.4934 93.75 57C93.75 46.5066 85.3553 38 75 38C64.6447 38 56.25 46.5066 56.25 57C56.25 67.4934 64.6447 76 75 76Z" stroke="white" stroke-width="12.5"/>
<path d="M112.307 126.667C111.313 108.354 105.779 95 74.9994 95C44.2201 95 38.6869 108.354 37.6923 126.667" stroke="white" stroke-width="12.5" stroke-linecap="round"/>
<path d="M43.75 21.1399C52.9429 15.7511 63.6162 12.667 75 12.667C109.517 12.667 137.5 41.0223 137.5 76.0003C137.5 110.978 109.517 139.334 75 139.334C40.4822 139.334 12.5 110.978 12.5 76.0003C12.5 64.4648 15.5436 53.6492 20.8614 44.3337" stroke="white" stroke-width="12.5" stroke-linecap="round"/>
</svg>
